# xmcd CD database file generated by Grip 3.0.5
# 
# Track frame offsets:
#       150
#       16525
#       32792
#       49825
#       69817
#       85212
#       100665
#       119175
#       131840
#       142577
#       155882
#       187930
# 
# Disc length: 2722 seconds
# 
# Revision: 2
# Processed by: cddbd v1.5.1PL0 Copyright (c) Steve Scherf et al.
# Submitted via: Grip 3.0.5
# 
DISCID=980aa00c
DTITLE=Sugar Ray's Flying Fortress - Bim Bam Baby
DYEAR=1996
DGENRE=Blues
TTITLE0=All Night Long
TTITLE1=Mr. Blues Is Coming To Town
TTITLE2=Jukebox
TTITLE3=We'll Be Together Again
TTITLE4=The Frim Fram Sauce
TTITLE5=Bei Mir Bist Du Schon
TTITLE6=Take The "A" Train
TTITLE7=Oh Marie!
TTITLE8=Bim Bam Baby
TTITLE9=Don't Go, Don't Go
TTITLE10=Dark Eyes
TTITLE11=You Got Me Reelin' And Rockin'
EXTD=
EXTT0=
EXTT1=
EXTT2=
EXTT3=
EXTT4=
EXTT5=
EXTT6=
EXTT7=
EXTT8=
EXTT9=
EXTT10=
EXTT11=
PLAYORDER=
